HIERARCHY
ROOT Hips
{
 OFFSET 0.000000 0.000000 0.000000
 CHANNELS 6 Xposition Yposition Zposition Yrotation Xrotation Zrotation
 JOINT Chest
 {
  OFFSET 0.000000 9.585900 0.002600
  CHANNELS 3 Yrotation Xrotation Zrotation
  JOINT Chest2
  {
   OFFSET 0.000000 9.601200 -0.005300
   CHANNELS 3 Yrotation Xrotation Zrotation
   JOINT Chest3
   {
    OFFSET 0.000000 9.561800 0.000000
    CHANNELS 3 Yrotation Xrotation Zrotation
    JOINT Chest4
    {
     OFFSET 0.000000 9.552100 0.000000
     CHANNELS 3 Yrotation Xrotation Zrotation
     JOINT Neck
     {
      OFFSET 0.000000 14.453000 0.000000
      CHANNELS 3 Yrotation Xrotation Zrotation
      JOINT Head
      {
       OFFSET 0.000000 8.936500 -0.011300
       CHANNELS 3 Yrotation Xrotation Zrotation
       End Site
       {
        OFFSET 0.000000 17.073600 -0.006000
       }
      }
     }
     JOINT RightCollar
     {
      OFFSET -2.921100 9.558500 0.000000
      CHANNELS 3 Yrotation Xrotation Zrotation
      JOINT RightShoulder
      {
       OFFSET -13.519700 0.000000 0.000000
       CHANNELS 3 Yrotation Xrotation Zrotation
       JOINT RightElbow
       {
        OFFSET 0.000000 -29.696600 0.000000
        CHANNELS 3 Yrotation Xrotation Zrotation
        JOINT RightWrist
        {
         OFFSET 0.000000 -24.004700 0.000000
         CHANNELS 3 Yrotation Xrotation Zrotation
         End Site
         {
          OFFSET 0.000000 -17.728500 0.000000
         }
        }
       }
      }
     }
     JOINT LeftCollar
     {
      OFFSET 2.921100 9.558500 0.000000
      CHANNELS 3 Yrotation Xrotation Zrotation
      JOINT LeftShoulder
      {
       OFFSET 13.519700 0.000000 0.000000
       CHANNELS 3 Yrotation Xrotation Zrotation
       JOINT LeftElbow
       {
        OFFSET 0.000000 -29.696600 0.000000
        CHANNELS 3 Yrotation Xrotation Zrotation
        JOINT LeftWrist
        {
         OFFSET 0.000000 -24.004700 0.000000
         CHANNELS 3 Yrotation Xrotation Zrotation
         End Site
         {
          OFFSET 0.000000 -17.728500 0.000000
         }
        }
       }
      }
     }
    }
   }
  }
 }
 JOINT RightHip
 {
  OFFSET -7.771700 -0.012900 -0.001300
  CHANNELS 3 Yrotation Xrotation Zrotation
  JOINT RightKnee
  {
   OFFSET 0.000000 -40.869800 0.001200
   CHANNELS 3 Yrotation Xrotation Zrotation
   JOINT RightAnkle
   {
    OFFSET 0.000000 -39.717900 0.002100
    CHANNELS 3 Yrotation Xrotation Zrotation
    JOINT RightToe
    {
     OFFSET 0.000000 -4.965400 11.033500
     CHANNELS 3 Yrotation Xrotation Zrotation
     End Site
     {
      OFFSET 0.000000 -1.423100 5.872300
     }
    }
   }
  }
 }
 JOINT LeftHip
 {
  OFFSET 7.771700 -0.012900 -0.001300
  CHANNELS 3 Yrotation Xrotation Zrotation
  JOINT LeftKnee
  {
   OFFSET 0.000000 -40.869800 0.001200
   CHANNELS 3 Yrotation Xrotation Zrotation
   JOINT LeftAnkle
   {
    OFFSET 0.000000 -39.717900 0.002100
    CHANNELS 3 Yrotation Xrotation Zrotation
    JOINT LeftToe
    {
     OFFSET 0.000000 -4.965400 11.033500
     CHANNELS 3 Yrotation Xrotation Zrotation
     End Site
     {
      OFFSET 0.000000 -1.423100 5.872300
     }
    }
   }
  }
 }
}
MOTION
Frames: 15
Frame Time: 0.008333
0.000000 85.388000 0.000000 0.000000 -5.767877 0.000000 0.000000 11.653817 0.000000 0.000000 -5.885947 0.000000 0.000000 -0.000000 0.000000 0.000000 -0.000000 0.000000 0.000000 12.528835 0.000000 0.000000 0.711642 0.000000 0.000000 -0.000000 0.000000 0.000000 0.000000 -90.000000 0.000000 -2.309062 0.000000 0.000000 2.309062 0.000000 0.000000 -0.000000 0.000000 0.000000 -0.000000 90.000000 0.000000 -2.309062 0.000000 0.000000 2.309062 0.000000 0.000000 8.520406 0.000000 0.000000 1.905762 0.000000 -0.000000 -4.658285 0.000000 0.000000 -0.000000 0.000000 0.000000 8.520406 0.000000 0.000000 1.905762 0.000000 -0.000000 -4.658285 0.000000 0.000000 -0.000000 0.000000
-182.060932 48.871442 13.280333 -177.222848 -34.839672 -3.324098 -0.308794 20.208099 3.949730 -0.078476 2.583132 0.511696 -0.123326 4.288307 0.816969 -0.070188 17.287287 3.465943 4.991322 23.062443 -1.455056 9.352028 7.366666 -3.931002 1.897057 -6.943028 -2.262630 0.094105 -12.956865 -4.545226 -65.161973 -50.306168 99.711093 0.945067 0.340036 -0.171026 -5.982223 -6.972155 4.106313 0.524680 -10.646695 4.464156 71.860742 -43.560312 -103.775674 11.380167 -1.536484 2.737045 6.338837 -49.618555 -12.747261 -153.234966 77.642463 -142.461705 -29.820315 -3.719651 2.197931 -0.449561 -9.853406 3.286193 -13.600430 -51.965283 12.907776 -67.260101 64.641848 -73.472345 30.857134 9.948973 16.287866 0.143483 -0.039621 0.043824
-182.052029 48.873208 13.279594 -177.283718 -34.897787 -3.322161 -0.242148 20.245208 3.990086 -0.085169 2.530215 0.524534 -0.112519 4.279733 0.824675 -0.098628 17.261617 3.483572 4.965748 23.217377 -1.407397 9.296886 7.604846 -3.815720 1.782481 -6.686529 -2.292000 0.297048 -13.206033 -4.566474 -64.666654 -50.284846 98.816222 0.833485 0.168108 -0.719609 -5.917715 -6.840871 4.059747 0.375909 -10.746505 4.425954 71.234872 -43.296001 -102.673814 11.768986 -1.762602 4.527985 6.318605 -49.577514 -12.668943 -153.168892 77.630925 -142.401012 -29.849152 -3.698663 2.167892 -0.413698 -9.877315 3.304671 -13.607230 -51.904974 12.949265 -67.275449 64.649260 -73.478815 30.886763 9.954356 16.275941 0.122555 -0.048657 0.032390
-182.047370 48.872108 13.282620 -177.294186 -34.933851 -3.328053 -0.238337 20.212092 4.014673 -0.096104 2.517138 0.526278 -0.122266 4.238390 0.838369 -0.119979 17.291609 3.483633 4.963308 23.340405 -1.406308 9.229845 7.846511 -3.672727 1.662967 -6.415179 -2.314841 0.487604 -13.452240 -4.592663 -64.297792 -50.344832 98.061907 0.759965 -0.005415 -1.093100 -5.759522 -6.624263 4.042446 0.146162 -10.910756 4.363693 70.849212 -43.103762 -101.747580 12.013385 -2.085035 5.714586 6.277523 -49.553592 -12.629879 -153.128203 77.619737 -142.366263 -29.851859 -3.704572 2.154539 -0.421877 -9.878776 3.307327 -13.641771 -51.866359 12.970549 -67.286371 64.649233 -73.488975 30.888363 9.956163 16.249797 0.132986 -0.045688 0.033649
-182.045338 48.869877 13.286893 -177.311321 -34.966382 -3.323876 -0.266505 20.130366 4.022674 -0.087467 2.577370 0.516800 -0.131044 4.219831 0.844708 -0.112014 17.332962 3.476172 4.956489 23.401011 -1.384367 9.149566 8.061526 -3.557651 1.507867 -6.183920 -2.296567 0.637120 -13.733647 -4.644659 -63.993095 -50.469772 97.396049 0.740897 -0.155006 -1.273689 -5.624257 -6.459516 4.044606 -0.071575 -11.054950 4.326991 70.647968 -43.023354 -100.959243 12.115655 -2.397049 6.207306 6.244522 -49.533336 -12.611930 -153.055109 77.605410 -142.281023 -29.855988 -3.722028 2.112144 -0.405464 -9.876895 3.316770 -13.732446 -51.823557 13.013942 -67.240455 64.664158 -73.481078 30.915635 9.952372 16.237956 0.091064 -0.042049 0.028557
-182.047831 48.871451 13.285325 -177.326509 -35.044778 -3.308353 -0.293006 20.162815 4.004863 -0.077885 2.587380 0.517202 -0.150876 4.208914 0.848492 -0.149380 17.315616 3.488259 4.900956 23.547316 -1.326089 9.119167 8.212391 -3.583449 1.386801 -5.894829 -2.288720 0.719017 -14.052505 -4.721921 -63.717009 -50.657485 96.809643 0.778726 -0.263905 -1.272079 -5.432875 -6.246214 3.992978 -0.249394 -11.192644 4.324526 70.546012 -43.066701 -100.276697 12.127825 -2.605824 6.102585 6.179568 -49.474069 -12.593693 -153.183170 77.614376 -142.452931 -29.848238 -3.699305 2.122474 -0.421480 -9.908523 3.296820 -13.738979 -51.745008 12.989338 -67.236664 64.668252 -73.483811 30.920968 9.962856 16.215438 0.093398 -0.047781 0.025778
-182.047892 48.870341 13.287629 -177.344598 -35.095960 -3.318792 -0.323358 20.174149 4.010779 -0.082910 2.588067 0.518544 -0.159209 4.209958 0.850590 -0.199254 17.303557 3.496355 4.870478 23.655017 -1.319011 9.084367 8.360041 -3.588696 1.272298 -5.596648 -2.268165 0.726916 -14.371759 -4.805982 -63.477562 -50.926244 96.325496 0.864771 -0.331935 -1.111588 -5.204137 -6.017201 3.916642 -0.369979 -11.331245 4.361156 70.467938 -43.190459 -99.683327 12.087162 -2.676008 5.609345 6.148101 -49.430163 -12.557943 -153.142012 77.606268 -142.402799 -29.865443 -3.708519 2.129070 -0.377342 -9.909181 3.270856 -13.780478 -51.689297 13.009057 -67.238759 64.678992 -73.489420 30.930896 9.956164 16.200953 0.097003 -0.040096 0.014744
-182.049881 48.868218 13.291446 -177.373949 -35.137028 -3.324260 -0.361218 20.181872 4.011666 -0.102515 2.578949 0.520898 -0.155746 4.222175 0.850936 -0.239701 17.305987 3.498741 4.849081 23.731504 -1.328815 9.045015 8.501280 -3.595754 1.150586 -5.301949 -2.227558 0.661174 -14.709779 -4.906803 -63.228151 -51.238609 95.895890 0.986128 -0.369545 -0.827129 -4.976692 -5.791854 3.822220 -0.393450 -11.445652 4.441138 70.376074 -43.341617 -99.195010 12.014169 -2.619628 4.927085 6.127093 -49.397002 -12.524012 -153.115084 77.605896 -142.366153 -29.871101 -3.718467 2.109785 -0.374989 -9.903653 3.271364 -13.808847 -51.646209 13.024671 -67.224291 64.703492 -73.483843 30.953660 9.948920 16.204256 0.060070 -0.039121 0.005192
-182.054478 48.865292 13.296767 -177.414195 -35.167675 -3.318652 -0.403655 20.189916 4.001116 -0.109174 2.580934 0.522073 -0.166501 4.225303 0.852605 -0.284141 17.310866 3.498769 4.829287 23.798251 -1.346234 9.010911 8.625066 -3.617491 1.037028 -5.014323 -2.169771 0.528072 -15.055286 -5.027203 -62.944574 -51.563790 95.502879 1.123442 -0.392280 -0.468106 -4.761365 -5.564696 3.712442 -0.286604 -11.520226 4.555282 70.264255 -43.497866 -98.837411 11.923028 -2.474647 4.194224 6.092679 -49.381608 -12.496537 -153.157916 77.621706 -142.413786 -29.881567 -3.713983 2.093460 -0.367707 -9.910010 3.258013 -13.816352 -51.617482 13.028859 -67.219032 64.728499 -73.481609 30.971723 9.941565 16.204991 0.010234 -0.041633 0.002537
-182.054410 48.863534 13.301552 -177.499005 -35.203768 -3.323477 -0.399734 20.214070 4.025029 -0.116149 2.584752 0.523000 -0.177821 4.231264 0.853955 -0.330707 17.321034 3.495802 4.808432 23.848868 -1.368050 8.976680 8.719133 -3.647899 0.927225 -4.758132 -2.095446 0.337480 -15.386012 -5.163123 -62.621617 -51.869474 95.138890 1.255164 -0.409175 -0.084967 -4.574404 -5.338254 3.607779 -0.053461 -11.555669 4.684131 70.152809 -43.662227 -98.618159 11.820489 -2.289050 3.491635 6.053576 -49.363969 -12.412599 -153.190744 77.641316 -142.448623 -29.906775 -3.698680 2.071240 -0.344925 -9.925781 3.248878 -13.819004 -51.580664 13.079621 -67.264900 64.747512 -73.512119 30.979341 9.912396 16.192718 0.010284 -0.021011 -0.012228
-182.059002 48.861203 13.308045 -177.535204 -35.225252 -3.332740 -0.446289 20.233452 4.019000 -0.123063 2.590216 0.523634 -0.189129 4.239752 0.854802 -0.376874 17.336046 3.489752 4.785105 23.879053 -1.391861 8.939407 8.775382 -3.682769 0.816073 -4.537786 -2.018728 0.111508 -15.683648 -5.297478 -62.272172 -52.133897 94.792885 1.364561 -0.420467 0.278710 -4.413449 -5.114850 3.521854 0.261363 -11.550183 4.814761 70.077736 -43.854061 -98.521669 11.718136 -2.112618 2.860940 5.970331 -49.362895 -12.363437 -153.297426 77.672930 -142.576932 -29.903259 -3.682640 2.052869 -0.360586 -9.942916 3.229934 -13.825964 -51.565672 13.088969 -67.380622 64.753509 -73.586394 30.948531 9.864582 16.158848 0.041701 0.017396 -0.030614
-182.058236 48.858001 13.317430 -177.609719 -35.226842 -3.352970 -0.451908 20.235599 4.041243 -0.129293 2.596335 0.523708 -0.199273 4.249275 0.854704 -0.418578 17.353407 3.480071 4.758897 23.887545 -1.414362 8.897588 8.791176 -3.716125 0.698892 -4.343120 -1.956310 -0.112214 -15.939390 -5.411549 -61.921505 -52.348557 94.455866 1.443281 -0.426023 0.579853 -4.273020 -4.904397 3.459613 0.607733 -11.500242 4.943811 70.059883 -44.102797 -98.509246 11.624777 -1.978926 2.314989 5.919118 -49.378627 -12.275468 -153.279903 77.722269 -142.527212 -29.964500 -3.652554 1.993027 -0.291875 -9.962888 3.214896 -13.838561 -51.567781 13.153168 -67.446063 64.779670 -73.623848 30.951317 9.826804 16.159240 0.006827 0.026121 -0.035800
-182.057197 48.858908 13.322458 -177.680537 -35.259876 -3.377307 -0.457880 20.273698 4.059239 -0.134290 2.602845 0.523226 -0.184492 4.253700 0.859109 -0.476497 17.377733 3.463110 4.729376 23.876073 -1.433656 8.849868 8.769569 -3.744336 0.574664 -4.165867 -1.916648 -0.296327 -16.150642 -5.500919 -61.603785 -52.517765 94.124655 1.491102 -0.425971 0.793900 -4.152630 -4.716220 3.422533 0.956085 -11.416649 5.066682 70.097599 -44.430413 -98.535423 11.540582 -1.893144 1.849772 5.879919 -49.357839 -12.174467 -153.252299 77.752338 -142.480620 -29.973364 -3.641822 1.953259 -0.282575 -9.966333 3.211326 -13.834776 -51.540204 13.202661 -67.522902 64.806592 -73.669099 30.950117 9.804235 16.151554 0.000549 0.025432 -0.039726
-182.059335 48.859736 13.328729 -177.747959 -35.282994 -3.381587 -0.474376 20.305704 4.050380 -0.138190 2.610253 0.522365 -0.119942 4.245971 0.875052 -0.515255 17.393058 3.451995 4.637526 23.870478 -1.447171 8.797289 8.720202 -3.768603 0.387079 -3.980024 -1.897033 -0.425657 -16.320834 -5.571425 -61.335868 -52.655789 93.790640 1.515140 -0.426453 0.927953 -4.102661 -4.532021 3.406593 1.285057 -11.321526 5.181624 70.169080 -44.832799 -98.556558 11.463044 -1.850590 1.459519 5.836939 -49.345518 -12.104893 -153.287868 77.786716 -142.519164 -29.972096 -3.635650 1.922190 -0.285305 -9.969522 3.205111 -13.806352 -51.526863 13.220644 -67.572025 64.834624 -73.694163 30.955069 9.796080 16.147740 -0.006751 0.019573 -0.040078
-182.061033 48.860883 13.335687 -177.811608 -35.299398 -3.386345 -0.496288 20.335621 4.036207 -0.141364 2.618563 0.521164 -0.193924 4.276038 0.856405 -0.494894 17.412308 3.439072 4.634913 23.827898 -1.464668 8.745698 8.656613 -3.790349 0.296670 -3.830660 -1.894941 -0.511963 -16.460411 -5.629842 -61.107737 -52.774961 93.445008 1.524676 -0.436814 1.010137 -3.951514 -4.399637 3.404050 1.571993 -11.239740 5.293113 70.241176 -45.265788 -98.536164 11.379719 -1.841844 1.146991 5.794358 -49.338876 -12.042030 -153.287228 77.823076 -142.512550 -29.983291 -3.618525 1.907872 -0.264403 -9.982143 3.172109 -13.781599 -51.518266 13.241679 -67.619169 64.860133 -73.718936 30.949014 9.775037 16.158504 -0.006893 0.027810 -0.055482
